<?xml version="1.0" encoding="utf-8"?>
<!-- Svg Vector Icons : http://www.onlinewebfonts.com/icon -->
<!DOCTYPE svg PUBLIC "-//W3C//DTD SVG 1.1//EN" "http://www.w3.org/Graphics/SVG/1.1/DTD/svg11.dtd">
<svg version="1.1" xmlns="http://www.w3.org/2000/svg" xmlns:xlink="http://www.w3.org/1999/xlink" x="0px" y="0px" viewBox="0 0 1000 1000" enable-background="new 0 0 1000 1000" xml:space="preserve">
<metadata> Svg Vector Icons : http://www.onlinewebfonts.com/icon </metadata>
<g><path d="M500,10C229.4,10,10,229.4,10,500c0,270.6,219.4,490,490,490c270.6,0,490-219.4,490-490C990,229.4,770.6,10,500,10z M384.1,770.5H237.4V623.9h146.7V770.5z M384.1,574H237.4V427.3h146.7V574z M384.1,377.4H237.4V230.7h146.7V377.4z M571.9,770.5H425.2V623.9h146.7V770.5z M571.9,574H425.2V427.3h146.7V574z M571.9,377.4H425.2V230.7h146.7V377.4z M762.6,770.5H615.9V623.9h146.7V770.5z M762.6,574H615.9V427.3h146.7V574z M762.6,377.4H615.9V230.7h146.7V377.4z"/></g>
</svg>