<?xml version="1.0" encoding="UTF-8"?>
<!DOCTYPE svg PUBLIC "-//W3C//DTD SVG 1.1//EN" "http://www.w3.org/Graphics/SVG/1.1/DTD/svg11.dtd">
<!-- Creator: CorelDRAW -->
<svg xmlns="http://www.w3.org/2000/svg" xml:space="preserve" width="2000px" height="4000px" style="shape-rendering:geometricPrecision; text-rendering:geometricPrecision; image-rendering:optimizeQuality; fill-rule:evenodd; clip-rule:evenodd" viewBox="0 0 2000 4000" xmlns:dc="http://purl.org/dc/elements/1.1/" xmlns:cc="http://creativecommons.org/ns#" xmlns:rdf="http://www.w3.org/1999/02/22-rdf-syntax-ns#" xmlns:svg="http://www.w3.org/2000/svg" xmlns:xlink="http://www.w3.org/1999/xlink" xmlns:sodipodi="http://sodipodi.sourceforge.net/DTD/sodipodi-0.dtd" xmlns:inkscape="http://www.inkscape.org/namespaces/inkscape" sodipodi:version="0.32" inkscape:version="0.46" sodipodi:docbase="/Users/user/Desktop" sodipodi:docname="Incandescent_light_bulb_(no_labels).svg" version="1.0" inkscape:output_extension="org.inkscape.output.svg.inkscape">
 <defs>
  <style type="text/css">
   <![CDATA[
    .str0 {stroke:black;stroke-width:14.111;stroke-linecap:round}
    .str1 {stroke:black;stroke-width:39.824}
    .str2 {stroke:white;stroke-width:39.824;stroke-linecap:round;stroke-linejoin:round}
    .fil0 {fill:none}
    .fil1 {fill:#72706F}
   ]]>
  </style>
 </defs>
 <g id="Livello_x0020_1">
  <metadata id="CorelCorpID_0Corel-Layer"/>
  <path class="fil0 str0" d="M521.255 1596.37c54.546,-31.806 126.471,-49.519 201.095,-49.519 74.624,0 146.513,17.713 201.059,49.496"/>
  <path class="fil0 str0" d="M1041.99 1596.35c54.546,-31.783 126.435,-49.496 201.059,-49.496 74.624,0 146.513,17.713 201.059,49.496"/>
  <polygon class="fil1" points="711.056,2592.14 711.056,3908.44 571.748,3908.44 571.748,2592.14 329.522,2592.14 329.522,1596.36 585.67,1596.36 589.16,1823.46 1022.72,2073.78 1022.72,2258.51 813.977,2258.51 813.977,2592.14 "/>
  <polygon class="fil1" points="1330.94,2592.14 1117.02,2592.14 1117.02,2034.81 683.466,1784.49 683.466,1596.36 1555.92,1596.36 1555.92,2274.7 1670.46,2473.1 1670.46,2592.14 1470.25,2592.14 1470.25,3908.44 1330.94,3908.44 "/>
  <sodipodi:namedview id="base" pagecolor="#ffffff" bordercolor="#666666" borderopacity="1.0" inkscape:pageopacity="0.0" inkscape:pageshadow="2" inkscape:zoom="0.54019286" inkscape:cx="3.3141634" inkscape:cy="243.99546" inkscape:document-units="px" inkscape:current-layer="layer1" showguides="true" inkscape:guide-bbox="true" inkscape:window-width="739" inkscape:window-height="701" inkscape:window-x="98" inkscape:window-y="40" showgrid="false"/>
  <metadata id="metadata7">
   <rdf:RDF>
    <cc:Work rdf:about="">
     <dc:format>
      
      image/svg+xml          </dc:format>
     <dc:type rdf:resource="http://purl.org/dc/dcmitype/StillImage"/>
     <cc:license rdf:resource="http://creativecommons.org/licenses/publicdomain/"/>
    </cc:Work>
    <cc:License rdf:about="http://creativecommons.org/licenses/publicdomain/">
     <cc:permits rdf:resource="http://creativecommons.org/ns#Reproduction"/>
     <cc:permits rdf:resource="http://creativecommons.org/ns#Distribution"/>
     <cc:permits rdf:resource="http://creativecommons.org/ns#DerivativeWorks"/>
    </cc:License>
   </rdf:RDF>
  </metadata>
  <path id="_145086000" class="fil0 str1" d="M195.418 2622.82l0.017 -1726.7c0,-444.272 360.294,-804.564 804.548,-804.564 444.286,0 804.545,360.294 804.545,804.564l0.017 1726.7c0,0 0,0 0,0 0,95.194 -360.294,172.404 -804.561,172.404 -444.272,0 -804.564,-77.21 -804.564,-172.404 0,0 0,0 0,0l-0.002 0z"/>
  <path id="_145085232" class="fil0 str1" d="M1804.46 2519.2c87.664,31.256 134.188,67.135 134.188,103.624 0,111.069 -420.344,201.143 -938.668,201.143 -518.303,0 -938.646,-90.074 -938.646,-201.143 0,-36.488 46.524,-72.368 134.188,-103.624"/>
  <path id="_145087576" class="fil0 str1" d="M1938.65 2622.82l0 213.261c0,0 0,0 0,0 0,111.063 -420.341,201.137 -938.665,201.137 -518.311,0 -938.649,-90.074 -938.649,-201.137 0,0 0,0 0,0l0.014 -213.261"/>
  <path class="fil0 str2" d="M1243.67 1596.36c-65.732,66.13 -156.353,103.525 -250.981,103.525 -94.626,0 -185.253,-37.394 -250.985,-103.525"/>
 </g>
</svg>